<?xml version="1.0" encoding="utf-8"?>
<!-- Generator: Adobe Illustrator 16.0.3, SVG Export Plug-In . SVG Version: 6.00 Build 0)  -->
<!DOCTYPE svg PUBLIC "-//W3C//DTD SVG 1.1//EN" "http://www.w3.org/Graphics/SVG/1.1/DTD/svg11.dtd">
<svg version="1.1" id="Layer_1" xmlns="http://www.w3.org/2000/svg" xmlns:xlink="http://www.w3.org/1999/xlink" x="0px" y="0px"
	 width="90px" height="90px" viewBox="0 0 90 90" enable-background="new 0 0 90 90" xml:space="preserve">
<path fill="#FFFFFF" d="M9.757,88.031c0.093,0.963,0.903,1.684,1.852,1.684c0.059,0,0.119-0.003,0.18-0.008l8.309-0.797
	c2.036-0.196,3.874-1.473,4.624-3.581l0.582-0.056c2.491-0.24,5.037,0.172,7.357,1.193l2.599,1.143
	c4.658,2.048,9.973,2.078,14.683,0.086l29.575-14.76c3.503-1.478,4.966-5.737,3.167-9.17c-1.619-3.089-5.31-4.371-8.296-2.964
	L58.26,67.213c-0.001-0.015,0.002-0.029,0-0.044c-0.125-1.229-0.642-2.319-1.395-3.18v-5.675c1.032,0.182,2.305,0.336,3.698,0.336
	c2.44,0,5.205-0.471,7.496-2.092c5.351-3.787,5.645-12.102,5.655-12.454c0.022-0.828-0.503-1.572-1.291-1.825
	c-0.334-0.108-8.274-2.595-13.625,1.189c-0.74,0.523-1.374,1.137-1.934,1.8v-6.139c10.022-0.943,17.894-9.397,17.894-19.661
	c0-10.892-8.862-19.755-19.755-19.755C44.11-0.282,35.247,8.58,35.247,19.472c0,10.265,7.871,18.72,17.894,19.66v6.14
	c-0.56-0.663-1.193-1.277-1.933-1.8c-5.352-3.787-13.293-1.299-13.626-1.19c-0.787,0.253-1.313,0.997-1.29,1.825
	c0.011,0.352,0.304,8.667,5.654,12.454c2.291,1.621,5.057,2.092,7.496,2.092c1.395,0,2.666-0.155,3.699-0.336v3.785
	c-0.309-0.024-0.618-0.039-0.936-0.009L44.3,62.852c-2.916,0.281-5.842-0.291-8.476-1.651c-3.272-1.688-6.919-2.396-10.538-2.05
	l-3.11,0.3c-1.019-1.851-3.096-3.027-5.33-2.804l-9.17,0.737c-1.025,0.082-1.789,0.98-1.706,2.005
	c0.082,1.023,0.969,1.782,2.004,1.705l9.2-0.738c0.967-0.105,1.834,0.567,1.927,1.477l2.209,21.581
	c0.086,0.86-0.572,1.694-1.57,1.789l-8.307,0.797C10.407,86.098,9.657,87.008,9.757,88.031L9.757,88.031z M60.946,46.512
	c2.719-1.923,6.761-1.469,8.898-1.037c-0.305,2.157-1.221,6.123-3.938,8.045c-2.714,1.92-6.756,1.47-8.892,1.039
	C57.324,52.398,58.251,48.418,60.946,46.512L60.946,46.512z M44.098,53.52c-2.718-1.922-3.634-5.888-3.938-8.045
	c2.136-0.432,6.181-0.886,8.898,1.037c2.717,1.922,3.633,5.889,3.937,8.047C50.86,54.99,46.816,55.443,44.098,53.52z M38.972,19.472
	c0-8.839,7.19-16.031,16.031-16.031c8.84,0,16.03,7.191,16.03,16.031c0,8.84-7.19,16.032-16.03,16.032
	C46.162,35.504,38.972,28.312,38.972,19.472z M25.642,62.859c2.909-0.278,5.838,0.291,8.475,1.65
	c3.271,1.689,6.912,2.399,10.538,2.051l7.908-0.761c0.99-0.091,1.884,0.69,1.993,1.75c0.117,1.148-0.718,1.986-1.58,2.067
	L38.62,70.995c-1.022,0.099-1.773,1.009-1.675,2.032c0.096,0.996,0.976,1.77,2.032,1.675l14.354-1.378
	c1.161-0.111,2.223-0.6,3.08-1.369l19.454-7.737c1.283-0.603,2.827-0.04,3.519,1.278c0.738,1.41,0.31,3.318-1.423,4.059
	l-29.576,14.76c-3.69,1.556-7.925,1.515-11.629-0.113l-2.6-1.143c-2.9-1.275-6.086-1.791-9.211-1.492l-0.084,0.009l-1.89-18.459
	L25.642,62.859z"/>
<path fill="#FFFFFF" d="M16.489,79.03c0,1.071-0.869,1.94-1.939,1.94c-1.072,0-1.941-0.869-1.941-1.94s0.869-1.941,1.941-1.941
	C15.62,77.089,16.489,77.958,16.489,79.03z"/>
</svg>
