<?xml version="1.0" encoding="utf-8"?>
<!-- Generator: Adobe Illustrator 16.0.3, SVG Export Plug-In . SVG Version: 6.00 Build 0)  -->
<!DOCTYPE svg PUBLIC "-//W3C//DTD SVG 1.1//EN" "http://www.w3.org/Graphics/SVG/1.1/DTD/svg11.dtd">
<svg version="1.1" id="Layer_1" xmlns="http://www.w3.org/2000/svg" xmlns:xlink="http://www.w3.org/1999/xlink" x="0px" y="0px"
	 width="90px" height="90px" viewBox="0 0 90 90" enable-background="new 0 0 90 90" xml:space="preserve">
<g>
	<path fill="#FFFFFF" d="M79.367,23.785H65.332c-0.084,1.668-0.881,3.159-2.281,4.125h13.86v28.426l4.126,2.808v-33.69
		C81.037,24.488,80.332,23.786,79.367,23.785L79.367,23.785z M57.525,82.832h-4.829l-2.012-11.318h11.838l-1.048-6.335H36.203H10.94
		V27.822H24.8c-1.41-0.877-2.281-2.457-2.281-4.124H8.483c-0.973,0-1.668,0.702-1.668,1.667V69.76c0,0.877,0.695,1.667,1.668,1.667
		h28.601l-2.021,11.317h-4.82c-0.352,0-0.705,0.264-0.705,0.702v1.579c0,0.351,0.26,0.702,0.705,0.702h27.19
		c0.354,0,0.705-0.263,0.705-0.702v-1.579C58.221,83.096,57.961,82.833,57.525,82.832L57.525,82.832z M44.454,70.058H43.49
		c-0.881,0-1.669-0.79-1.669-1.668c0-0.965,0.789-1.667,1.669-1.667h0.963c0.872,0,1.669,0.789,1.669,1.667
		S45.325,70.058,44.454,70.058z"/>
	<path fill="#FFFFFF" stroke="#FFFFFF" stroke-width="2.5" d="M81.871,64.92l0.027,0.023l0.037,0.019c0,0.002,0,0.004,0,0.004
		c0,0.005,0,0.012,0,0.021c0,0.021-0.009,0.041-0.019,0.054c-0.009,0.01-0.019,0.019-0.037,0.028l-5.674,1.834l-1.381,0.446
		l0.741,1.247l3.588,6.042c0.028,0.046,0.028,0.091,0.019,0.124c0,0.016-0.009,0.025-0.009,0.03c0,0.004-0.01,0.01-0.019,0.015
		l-0.01,0.004l-0.009,0.004l-1.92,1.135c-0.046,0.025-0.092,0.028-0.12,0.02c-0.019-0.003-0.027-0.009-0.027-0.013
		c-0.01-0.003-0.01-0.007-0.019-0.016l-0.01-0.013v-0.012l-3.597-5.966l-0.751-1.242l-1.048,1.004l-4.302,4.124l-0.009,0.008
		l-0.01,0.009v0.001c-0.009,0.002-0.037,0.003-0.064-0.008c-0.037-0.012-0.046-0.026-0.056-0.033c0-0.004,0-0.004,0-0.005
		c0,0-0.01-0.008-0.01-0.021v-0.019v-0.019L64.813,53.22V53.19v-0.026c0-0.002,0-0.004,0.009-0.006
		c0.018-0.013,0.037-0.017,0.055-0.017c0.011,0,0.02,0,0.02,0.004c0.009,0.002,0.018,0.005,0.037,0.016l0,0v0.002L81.871,64.92z"/>
	<path fill="#FFFFFF" d="M33.922,5.361c0.26-1.491,1.492-2.632,2.893-2.895c2.373-0.439,4.561,1.404,4.561,3.685
		c0,1.579-0.964,2.895-2.364,3.509v7.985l4.914,2.982l5.09-3.071V9.571c-1.409-0.525-2.374-1.93-2.374-3.509
		c0-2.018,1.669-3.772,3.773-3.772s3.772,1.667,3.772,3.772c0,1.579-0.963,2.896-2.373,3.509v8.774c0,0.526-0.26,0.965-0.695,1.228
		l-5.794,3.597v20.883c0,0.79-0.612,1.403-1.399,1.403c-0.789,0-1.41-0.614-1.41-1.403V23.084l-5.609-3.509
		c-0.444-0.263-0.704-0.701-0.704-1.228V9.573C34.535,8.96,33.487,7.292,33.922,5.361L33.922,5.361z"/>
	<path fill="#FFFFFF" d="M23.919,15.802c0-2.37,2.197-4.211,4.653-3.685c1.4,0.264,2.541,1.404,2.809,2.808
		c0.436,1.93-0.621,3.684-2.197,4.299v3.597l5.619,3.509c0.436,0.264,0.695,0.701,0.695,1.229v10.089c0,0.791-0.612,1.404-1.4,1.404
		c-0.788,0-1.4-0.614-1.4-1.404v-9.299l-5.618-3.509c-0.436-0.263-0.705-0.702-0.705-1.229v-4.387
		C24.883,18.698,23.919,17.293,23.919,15.802L23.919,15.802z"/>
	<path fill="#FFFFFF" d="M53.929,39.052c-0.788,0-1.409-0.615-1.409-1.404V27.559c0-0.438,0.269-0.965,0.705-1.229l5.617-3.509
		v-3.597c-1.585-0.615-2.633-2.37-2.197-4.3c0.26-1.403,1.41-2.543,2.81-2.896c2.456-0.525,4.562,1.317,4.562,3.685
		c0,1.579-0.965,2.896-2.364,3.422v4.388c0,0.438-0.269,0.965-0.704,1.228l-5.619,3.509v9.299
		C55.421,38.438,54.717,39.053,53.929,39.052L53.929,39.052z"/>
</g>
</svg>
