<?xml version="1.0" encoding="utf-8"?>
<!-- Generator: Adobe Illustrator 16.0.3, SVG Export Plug-In . SVG Version: 6.00 Build 0)  -->
<!DOCTYPE svg PUBLIC "-//W3C//DTD SVG 1.1//EN" "http://www.w3.org/Graphics/SVG/1.1/DTD/svg11.dtd">
<svg version="1.1" id="Layer_1" xmlns="http://www.w3.org/2000/svg" xmlns:xlink="http://www.w3.org/1999/xlink" x="0px" y="0px"
	 width="90px" height="90px" viewBox="0 0 90 90" enable-background="new 0 0 90 90" xml:space="preserve">
<path fill="#FFFFFF" d="M78.387,17.419v69.679H72.58V49.355H60.967v37.742h-2.902V58.065h-2.903V54.18l9.313-12.922
	c1.91-3.054,3.118-6.547,3.55-10.125c2.832-3.302,4.556-7.581,4.556-12.261C72.58,8.466,64.114,0,53.709,0
	C43.305,0,34.838,8.466,34.838,18.871c0,4.393,1.541,8.614,4.321,11.988l-4.271,5.49c-1.904,2.45-2.954,5.506-2.954,8.609
	c0,1.015,0.11,2.028,0.328,3.013l2.221,10.095h-2.548v29.032h-2.903V20.323H17.419v66.774h-5.807V34.839H0V90h90V17.42
	L78.387,17.419z M8.709,87.098H2.903V37.742h5.806V87.098z M63.87,52.258h5.807v34.84H63.87V52.258z M37.741,18.871
	c0-8.804,7.164-15.968,15.968-15.968c8.805,0,15.968,7.164,15.968,15.968c0,8.804-7.163,15.968-15.968,15.968
	c-1.236,0-2.453-0.156-3.641-0.433c0.466-0.824,0.737-1.747,0.737-2.719c0-3.066-2.493-5.558-5.557-5.558h-2.411l-1.851,2.379
	C38.892,25.743,37.742,22.369,37.741,18.871L37.741,18.871z M47.964,36.83c1.168,0.374,2.366,0.634,3.587,0.773l-7.239,8.848h-0.101
	c-0.431-0.594-0.663-1.305-0.663-2.052v-1.701c0-0.937,0.364-1.816,1.026-2.479L47.964,36.83z M35.098,47.348
	c-0.171-0.781-0.26-1.584-0.26-2.391c0-2.46,0.832-4.885,2.342-6.827l7.078-9.098h0.991c1.463,0,2.653,1.19,2.653,2.655
	c0,0.708-0.275,1.376-0.776,1.876l-4.604,4.603c-1.211,1.21-1.877,2.818-1.877,4.531v1.701c0,1.713,0.666,3.32,1.877,4.531
	l0.426,0.424h2.74l9.567-11.69c3.365-0.274,6.483-1.426,9.12-3.24c-0.553,1.848-1.313,3.62-2.309,5.214L52.258,53.24v4.824H37.457
	L35.098,47.348z M34.838,66.773h2.903V63.87h-2.903v-2.903h20.323v2.903H40.645v2.903h14.517v20.322H34.838V66.773z M20.322,23.225
	h5.807v63.871h-5.807V23.225z M87.096,87.096H81.29V20.322h5.806V87.096z"/>
</svg>
