<?xml version="1.0" encoding="utf-8"?>
<!-- Generator: Adobe Illustrator 16.0.3, SVG Export Plug-In . SVG Version: 6.00 Build 0)  -->
<!DOCTYPE svg PUBLIC "-//W3C//DTD SVG 1.1//EN" "http://www.w3.org/Graphics/SVG/1.1/DTD/svg11.dtd">
<svg version="1.1" id="Layer_1" xmlns="http://www.w3.org/2000/svg" xmlns:xlink="http://www.w3.org/1999/xlink" x="0px" y="0px"
	 width="90px" height="90px" viewBox="0 0 90 90" enable-background="new 0 0 90 90" xml:space="preserve">
<g>
	<path fill="#FFFFFF" d="M50.802,8.715h-1.723V83.14h1.723c20.486,0,37.257-16.68,37.257-37.258
		C88.059,25.304,71.38,8.715,50.802,8.715z M84.524,44.251H71.198c-0.091-4.443-0.635-8.703-1.541-12.601h11.693
		C83.164,35.458,84.252,39.718,84.524,44.251L84.524,44.251z M79.447,28.114H68.751c-1.723-5.892-4.262-10.788-7.435-14.142
		C68.932,16.42,75.276,21.497,79.447,28.114L79.447,28.114z M52.614,12.432c5.168,1.087,9.791,7.161,12.511,15.682H52.614V12.432z
		 M52.614,31.559h13.507c0.908,3.899,1.542,8.159,1.633,12.601h-15.14V31.559z M52.614,47.695h15.049
		c-0.091,4.442-0.726,8.793-1.631,12.6H52.614V47.695z M52.614,79.514V63.832h12.511C62.314,72.354,57.782,78.427,52.614,79.514z
		 M61.317,78.063c3.174-3.354,5.712-8.25,7.435-14.143h10.696C75.277,70.449,68.932,75.525,61.317,78.063z M81.353,60.387H69.658
		c0.906-3.898,1.359-8.159,1.541-12.602h13.326C84.253,52.228,83.165,56.488,81.353,60.387L81.353,60.387z"/>
	<path fill="#FFFFFF" d="M46.632,28.114v3.445H34.666l-6.708-13.054h-6.345c0.181-0.543,0.181-1.179,0.181-1.723
		c0-0.635-0.09-1.179-0.181-1.723h8.429l6.801,13.054H46.632z"/>
	<path fill="#FFFFFF" d="M19.527,16.692c0,2.954-2.395,5.349-5.349,5.349S8.83,19.646,8.83,16.692c0-2.954,2.394-5.349,5.348-5.349
		S19.527,13.739,19.527,16.692z"/>
	<path fill="#FFFFFF" d="M12.638,36.184c0,2.952-2.394,5.348-5.349,5.348c-2.954,0-5.348-2.396-5.348-5.348
		c0-2.955,2.394-5.35,5.348-5.35C10.244,30.834,12.638,33.229,12.638,36.184z"/>
	<path fill="#FFFFFF" d="M46.632,44.251v3.444H32.309l-6.708,9.79H14.724c0.181-0.544,0.181-1.178,0.181-1.722
		c0-0.636-0.09-1.18-0.181-1.724h9.064l5.53-7.978l-5.53-7.977h-9.064c0.181-0.544,0.181-1.179,0.181-1.724
		c0-0.635-0.09-1.177-0.181-1.722h10.878l6.708,9.608L46.632,44.251z"/>
	<path fill="#FFFFFF" d="M12.638,55.764c0,2.954-2.394,5.348-5.349,5.348c-2.954,0-5.348-2.394-5.348-5.348s2.394-5.348,5.348-5.348
		C10.244,50.416,12.638,52.81,12.638,55.764z"/>
	<path fill="#FFFFFF" d="M46.632,60.387v3.445h-9.79l-6.708,13.054h-8.43c0.182-0.544,0.182-1.179,0.182-1.724
		c0-0.635-0.09-1.179-0.182-1.722h6.345l6.708-13.054H46.632z"/>
	<path fill="#FFFFFF" d="M19.527,75.253c0,2.954-2.395,5.35-5.349,5.35s-5.348-2.396-5.348-5.35s2.394-5.349,5.348-5.349
		S19.527,72.299,19.527,75.253z"/>
</g>
</svg>
