<?xml version="1.0" encoding="utf-8"?>
<!-- Generator: Adobe Illustrator 16.0.3, SVG Export Plug-In . SVG Version: 6.00 Build 0)  -->
<!DOCTYPE svg PUBLIC "-//W3C//DTD SVG 1.1//EN" "http://www.w3.org/Graphics/SVG/1.1/DTD/svg11.dtd">
<svg version="1.1" id="Layer_1" xmlns="http://www.w3.org/2000/svg" xmlns:xlink="http://www.w3.org/1999/xlink" x="0px" y="0px"
	 width="90px" height="90px" viewBox="0 0 90 90" enable-background="new 0 0 90 90" xml:space="preserve">
<path fill="#FFFFFF" d="M85.704,55.518l-0.129-0.037c-1.873-0.502-2.508-0.986-3.342-1.303c-1.447-0.553-2.373-1.028-2.961-1.417
	l2.156-1.823c2.016-1.705,3.404-4.1,4.014-6.934c0.541-2.491,0.445-5.275-0.266-7.833c-0.605-2.19-1.631-4.136-2.961-5.636
	c-1.51-1.694-3.375-2.763-5.395-3.089c-1.41-0.227-2.736-0.343-3.943-0.343c-3.494,0-5.414,0.955-6.375,1.689
	c-0.492,0.224-4.035,1.938-5.818,5.544c0.469-3.134,0.863-11.13-5.744-17.112c-1.539-1.394-5.203-2.974-9.738-2.974
	c-3.197,0-6.827,0.785-10.454,2.974c-4.443,2.681-7.676,14.52-7.676,14.52s0.976,0.551,2.695,1.087
	c-0.128,0.913-0.196,1.861-0.196,2.845c0,5.006,2.381,9.917,5.5,13.576l-0.019,2.455c-0.009,0.024-0.019,0.048-0.029,0.069
	c-0.261,0.513-1.159,1.508-4.214,2.877c-0.39-0.181-0.707-0.347-1.061-0.479c-2.958-1.127-3.73-1.94-3.927-2.324
	c-0.008-0.016-0.013-0.031-0.019-0.044l-0.019-2.588c1.581-2.117,2.71-4.754,2.714-7.492c0,0,1.109-4.315-0.133-7.175
	c-1.185-2.736-4.289-2.794-4.561-2.794h-0.02c0,0-0.188-1.686,1.83-2.898c0.338-0.204-1.598-0.708-4.269-0.708
	c-4.084,0-9.89,1.175-11.96,6.388c-1.289,3.241-0.337,8.014-0.337,8.014l0.002-0.003c0.201,2.44,1.258,4.764,2.681,6.668
	l-0.02,2.588c-0.005,0.013-0.012,0.028-0.018,0.044c-0.197,0.384-0.968,1.197-3.926,2.324c-0.835,0.317-1.471,0.801-3.345,1.303
	l-0.128,0.038c-1.703,0.563-2.852,2.147-2.852,3.934v4.967h16.335v7.258h54.446v-7.258H88.56v-4.967
	C88.56,57.663,87.411,56.084,85.704,55.518L85.704,55.518z M72.88,30.731c1.014,0,2.145,0.101,3.361,0.298
	c2.416,0.391,4.502,2.733,5.438,6.109c0.563,2.031,0.67,4.464,0.068,6.673c-0.416-1.922-1.215-3.998-2.721-5.713
	c-2.096-2.39-5.09-3.603-8.895-3.603c-0.262,0-0.527,0.005-0.795,0.016l-0.184-3.102c0.604-0.3,1.752-0.678,3.725-0.678H72.88z
	 M66.657,41.227c0.617-1.616,1.326-2.558,1.734-3.003c0.605-0.064,1.191-0.102,1.742-0.102c2.746,0,4.758,0.771,6.156,2.36
	c1.064,1.208,1.635,2.739,1.936,4.191c-0.436,1.053-1.084,2.089-1.914,3.041c-1.643,1.887-3.182,2.488-3.555,2.496
	c-0.373-0.008-1.91-0.609-3.557-2.496c-1.623-1.861-2.553-4.058-2.553-6.025C66.647,41.531,66.651,41.379,66.657,41.227
	L66.657,41.227z M65.491,48.857c0.527,0.753,1.119,1.447,1.738,2.059l-0.006,0.893c-0.008,0.016-0.014,0.032-0.02,0.042
	c-0.135,0.266-0.543,0.733-1.75,1.366L65.491,48.857z M65.185,34.169l-0.127,2.396c-0.311,0.419-0.645,0.93-0.973,1.545
	c-0.283,0.524-0.535,1.072-0.762,1.65c-0.016-0.332-0.023-0.674-0.023-1.026C63.3,36.755,64.183,35.245,65.185,34.169L65.185,34.169
	z M62.155,49.251l2.748,4.244c-0.453,0.213-0.986,0.44-1.625,0.683c-0.717,0.275-1.287,0.667-2.623,1.092
	c-4.248-1.686-5.385-2.907-5.68-3.492c-0.01-0.022-0.021-0.046-0.033-0.07l-0.016-2.456c2.104-2.47,3.871-5.509,4.799-8.763
	c0.137,2.09,0.518,4.068,1.139,5.897C61.468,48.161,62.087,49.145,62.155,49.251L62.155,49.251z M47.923,54.77l-0.898,2.383h-4.049
	l-0.897-2.383h0.212c0.951,0.37,1.869,0.569,2.711,0.569c0.842,0,1.758-0.199,2.713-0.569H47.923z M32.627,26.812
	c2.148-5.167,3.706-6.304,3.997-6.479c2.696-1.626,5.582-2.451,8.58-2.451c3.816,0,6.564,1.371,7.299,2.034
	c2.49,2.254,4.021,5.111,4.564,8.502c-0.232-0.298-0.486-0.588-0.781-0.863c-1.113-1.034-2.475-1.56-4.047-1.56
	c-1.686,0-3.645,0.599-6.766,2.068c-2.991,1.408-6.054,2.121-9.101,2.121c-1.909,0-3.543-0.285-4.799-0.615
	C31.869,28.728,32.223,27.782,32.627,26.812L32.627,26.812z M33.326,33.611c0.934,0.125,1.951,0.205,3.047,0.205
	c3.053,0,6.689-0.606,10.646-2.467c2.584-1.218,4.154-1.723,5.221-1.723c1.717,0,2.117,1.316,3.305,3.103
	c0.271,0.402,0.684,0.779,1.156,1.12c0.064,0.596,0.096,1.207,0.096,1.829c0,3.679-1.693,7.774-4.645,11.235
	c-3,3.521-5.92,4.797-7.152,4.797c-1.233,0-4.152-1.275-7.154-4.797c-2.951-3.461-4.645-7.556-4.645-11.235
	C33.202,34.97,33.244,34.282,33.326,33.611L33.326,33.611z M16.035,32.731c1.146-0.489,2.579-0.8,4.121-0.907
	c0.005,0.141,0.015,0.252,0.023,0.337l0.213,2.138c-0.532,0.037-1.083,0.058-1.633,0.058c-1.794,0-3.539-0.231-4.66-0.42
	C14.623,33.459,15.266,33.061,16.035,32.731L16.035,32.731z M13.743,37.559c1.271,0.205,3.103,0.431,5.017,0.431
	c1.884,0,3.724-0.219,5.022-0.42c0.716,1.135,1.091,2.546,1.091,4.145c0,1.97-0.933,4.167-2.555,6.031
	c-1.646,1.885-3.183,2.49-3.558,2.495c-0.374-0.005-1.913-0.61-3.557-2.495c-1.625-1.864-2.555-4.061-2.555-6.031
	C12.648,40.112,13.025,38.697,13.743,37.559L13.743,37.559z M5.071,59.449c0-0.208,0.131-0.394,0.33-0.474
	c1.59-0.431,2.5-0.867,3.164-1.186c0.208-0.099,0.373-0.176,0.497-0.223c3.295-1.255,5.049-2.473,5.865-4.063l0.005-0.011
	c0.049-0.096,0.085-0.176,0.111-0.236l0.274-0.619c1.207,0.781,2.415,1.23,3.443,1.23c1.026,0,2.233-0.449,3.44-1.23l0.279,0.628
	c0.029,0.063,0.067,0.148,0.121,0.252c0.581,1.125,1.633,2.062,3.373,2.959c-1.011,0.33-2.187,0.687-3.523,1.048l-0.201,0.059
	c-1.651,0.553-2.971,1.721-3.736,3.2H5.071V59.449z M21.408,68.042v-4.233c0-1.249,0.777-2.352,1.941-2.764l0.087-0.027
	c3.077-0.835,5.361-1.643,6.741-2.172c4.124-1.587,6.553-3.104,7.737-4.836l2.095,5.566l-1.586,8.466H21.408z M42.115,68.042
	l1.36-7.259h3.049l1.363,7.259H42.115z M68.595,68.042H51.581l-1.59-8.466l2.098-5.566c1.182,1.734,3.609,3.246,7.732,4.83
	c1.371,0.53,3.652,1.338,6.758,2.18l0.063,0.02c1.17,0.409,1.951,1.519,1.951,2.77L68.595,68.042z M84.931,60.784H71.487
	c-0.764-1.481-2.078-2.647-3.732-3.2l-0.176-0.054c-0.607-0.164-1.178-0.326-1.719-0.483c2.477-1.079,3.871-2.17,4.574-3.535
	L70.44,53.5l0.006-0.013c0.041-0.078,0.07-0.146,0.094-0.2c0.781,0.356,1.539,0.555,2.219,0.555c0.676,0,1.432-0.198,2.217-0.555
	c0.023,0.059,0.059,0.135,0.104,0.225c0.816,1.589,2.57,2.801,5.867,4.059c0.119,0.046,0.285,0.126,0.492,0.224
	c0.664,0.319,1.574,0.755,3.164,1.183c0.199,0.08,0.33,0.264,0.33,0.474L84.931,60.784z"/>
</svg>
